<svg width="24" height="24" viewBox="0 0 86 87" fill="none" xmlns="http://www.w3.org/2000/svg" style="border-radius: 100%;"><rect y="0.154297" width="86" height="86" rx="43" fill="white"></rect><mask id="mask0_3882_6659" maskUnits="userSpaceOnUse" x="0" y="0" width="86" height="87" style="mask-type: alpha;"><rect y="0.154297" width="86" height="86" rx="43" fill="#6100FF"></rect></mask><g mask="url(#mask0_3882_6659)"><path d="M37.6766 33.4179C37.6766 33.0077 37.7136 32.3859 37.7901 31.5534C37.8649 30.7209 37.9036 30.0991 37.9036 29.6889C37.9036 29.3432 39.0707 29.1695 41.4056 29.1695C43.7405 29.1695 45.4914 29.332 46.5286 29.6562C48.3879 30.2617 49.3176 31.4941 49.3176 33.3525C49.3176 36.0116 46.9938 37.3412 42.3455 37.3412C39.8378 37.3412 38.4652 37.244 38.2279 37.0497C37.8598 36.7899 37.6766 35.5799 37.6766 33.4179ZM47.8581 47.5236C46.821 47.0919 45.1345 46.8752 42.7996 46.8752C40.0106 46.8752 38.4979 46.9775 38.2597 47.183C38.0215 47.3886 37.9036 48.713 37.9036 51.1554C37.9036 53.5978 38.0438 55.1174 38.325 55.3874C38.6054 55.6575 40.162 55.7925 42.994 55.7925C45.3289 55.7925 46.9715 55.6093 47.9235 55.2412C49.5007 54.6143 50.2902 53.3604 50.2902 51.4796C50.2902 49.5988 49.4801 48.2159 47.8581 47.5236ZM86 0V86H0V0H86ZM63.2616 51.6095C63.2616 49.7071 62.872 47.9123 62.0946 46.2267C61.2294 44.3459 60.04 42.9733 58.5273 42.1082C57.9709 41.7874 57.6897 41.5518 57.6845 41.4004C57.7112 41.4314 58.1111 41.0194 58.8842 40.1629C59.7915 39.1463 60.5268 38.1307 61.0892 37.1142C61.8675 35.6874 62.2563 34.3372 62.2563 33.061C62.2563 28.1753 60.581 24.7061 57.2304 22.6515C55.2627 21.4587 52.4531 20.6701 48.799 20.2865C48.9151 17.5173 49.106 14.9571 49.3717 12.605C49.4147 12.2808 49.4371 12.0753 49.4371 11.9893C49.4371 11.5567 49.1774 11.34 48.6588 11.34C48.0319 11.34 47.091 11.3941 45.8371 11.5025C44.5833 11.6109 43.6433 11.665 43.0163 11.665C42.3894 11.665 41.4546 11.5997 40.211 11.4698C38.9683 11.34 38.0438 11.2755 37.4384 11.2755C36.8329 11.2755 36.5629 11.4922 36.5629 11.9239C36.5629 12.0323 36.5844 12.2593 36.6283 12.605C36.8974 14.6647 37.0909 17.1278 37.207 19.995C36.0435 19.9933 34.7629 19.9924 33.3637 19.9924C29.0611 19.9924 26.5585 20.0363 25.8568 20.1223C25.1541 20.2091 24.8136 20.4577 24.8351 20.8679L24.8678 21.322C25.0398 24.8678 25.1593 27.5269 25.2238 29.2993C25.4835 36.218 25.6134 40.93 25.6134 43.4377C25.6134 45.7726 25.4784 49.2857 25.2075 53.977C24.9374 58.6683 24.8024 62.1703 24.8024 64.4828C24.8024 65.0237 25.1154 65.3591 25.7432 65.4881C27.0702 65.7728 30.8869 65.9328 37.1907 65.9672C37.0729 68.6392 36.8854 71.1151 36.6283 73.395C36.5853 73.7192 36.5629 73.9247 36.5629 74.0107C36.5629 74.4433 36.8226 74.66 37.3412 74.66C37.969 74.66 38.909 74.6059 40.1629 74.4975C41.4167 74.3891 42.3567 74.335 42.9837 74.335C43.6106 74.335 44.5463 74.4003 45.789 74.5302C47.0325 74.66 47.9562 74.7245 48.5616 74.7245C49.1671 74.7245 49.4371 74.5078 49.4371 74.0761C49.4371 73.9677 49.4156 73.7407 49.3717 73.395C49.0965 71.2888 48.9005 68.7613 48.7852 65.8115C53.7079 65.3161 57.2906 63.8791 59.5326 61.5003C62.018 58.8842 63.2616 55.5878 63.2616 51.6095Z" fill="#FBC93B"></path></g></svg>