<svg width="24" height="24" viewBox="0 0 24 24" fill="#4690FF" xmlns="http://www.w3.org/2000/svg" class="ant-menu-item-icon"><path d="M22.5969 2.09988C22.4969 1.79988 22.1969 1.49988 21.8969 1.39988C17.6969 0.299882 13.3969 1.59988 10.4969 4.99988L9.39687 6.29988L6.69687 5.69988C5.39687 5.19988 3.99688 5.79988 3.39688 6.99988L1.19688 10.8999C0.996875 11.1999 0.996875 11.4999 1.19688 11.7999C1.29688 12.0999 1.59687 12.2999 1.89687 12.3999L4.99688 13.0999C4.69688 13.8999 4.59688 14.6999 4.39688 15.4999C4.39688 15.7999 4.49687 16.0999 4.69687 16.2999L7.79688 19.3999C7.99688 19.5999 8.19687 19.6999 8.49687 19.6999H8.59688C9.49688 19.5999 10.2969 19.4999 11.0969 19.1999L11.6969 22.1999C11.7969 22.4999 11.9969 22.7999 12.2969 22.8999C12.3969 22.9999 12.5969 22.9999 12.6969 22.9999C12.8969 22.9999 12.9969 22.9999 13.1969 22.8999L17.0969 20.6999C18.1969 20.0999 18.7969 18.6999 18.4969 17.3999L17.7969 14.5999L18.9969 13.4999C22.2969 10.6999 23.6969 6.19988 22.5969 2.09988ZM7.29688 8.79988C6.69687 9.59988 6.09687 10.3999 5.69687 11.1999L3.59687 10.6999L5.09687 7.99988C5.29687 7.59988 5.69687 7.49988 6.19687 7.59988L7.89687 7.99988L7.29688 8.79988ZM15.9969 18.8999L13.2969 20.3999L12.8969 18.3999C13.7969 17.9999 14.5969 17.3999 15.2969 16.7999L15.9969 16.0999L16.3969 17.7999C16.5969 18.2999 16.2969 18.7999 15.9969 18.8999ZM16.6969 8.79988C15.8969 8.79988 15.1969 8.09988 15.1969 7.29988C15.1969 6.49988 15.8969 5.79988 16.6969 5.79988C17.4969 5.79988 18.1969 6.49988 18.1969 7.29988C18.1969 8.09988 17.5969 8.79988 16.6969 8.79988Z" fill="current"></path></svg>