<svg width="24" height="24" viewBox="0 0 24 24" fill="none" xmlns="http://www.w3.org/2000/svg" style="margin-left: 5px; margin-right: 0px;"><rect width="24" height="24" rx="12" fill="black"></rect><path fill-rule="evenodd" clip-rule="evenodd" d="M14.0529 5.87064L16.1957 7.08575C17.4599 7.8026 18.2386 9.12739 18.2386 10.5611L18.2386 12.9913C18.2386 14.425 17.4599 15.7498 16.1957 16.4666L14.0529 17.6817C12.7887 18.3986 11.2312 18.3986 9.96702 17.6817L7.82418 16.4666C6.56001 15.7498 5.78125 14.425 5.78125 12.9913L5.78125 10.5611C5.78125 9.12739 6.56001 7.8026 7.82418 7.08575L9.96702 5.87064C11.2312 5.1538 12.7887 5.1538 14.0529 5.87064ZM13.3233 7.11184C12.5106 6.65101 11.5093 6.65101 10.6966 7.11184L8.5538 8.32694C7.74112 8.78777 7.24048 9.63942 7.24048 10.5611L7.24048 12.9913C7.24048 13.913 7.74111 14.7646 8.55379 15.2254L10.6966 16.4405C11.5093 16.9014 12.5106 16.9014 13.3233 16.4405L15.4661 15.2254C16.2788 14.7646 16.7794 13.913 16.7794 12.9913L16.7794 10.5611C16.7794 9.63942 16.2788 8.78777 15.4661 8.32694L13.3233 7.11184Z" fill="white"></path><path d="M11.4459 9.39092C11.8071 9.1861 12.2521 9.1861 12.6133 9.39091L13.8271 10.0792C14.1883 10.284 14.4108 10.6625 14.4108 11.0722L14.4108 12.4487C14.4108 12.8584 14.1883 13.2369 13.8271 13.4417L12.6133 14.13C12.2521 14.3348 11.8071 14.3348 11.4459 14.13L10.2321 13.4417C9.87094 13.2369 9.64844 12.8584 9.64844 12.4487L9.64844 11.0722C9.64844 10.6625 9.87094 10.284 10.2321 10.0792L11.4459 9.39092Z" fill="white"></path></svg>