<svg width="16" height="16" viewBox="0 0 16 16" fill="white" xmlns="http://www.w3.org/2000/svg" class="head-tail-logo"><path d="M15.4549 0.540979C14.7336 -0.180325 13.5641 -0.180328 12.8428 0.540979L7.99963 5.38414L3.15663 0.541125C2.43534 -0.180182 1.26587 -0.180182 0.544563 0.541125C-0.176741 1.26243 -0.176745 2.43189 0.544563 3.15319L5.38757 7.99619L0.54098 12.8428C-0.180327 13.5641 -0.180327 14.7336 0.54098 15.4549C1.26228 16.1762 2.43175 16.1762 3.15306 15.4549L7.99963 10.6083L12.8464 15.455C13.5677 16.1763 14.7371 16.1763 15.4585 15.455C16.1797 14.7337 16.1798 13.5643 15.4585 12.8429L10.6117 7.99619L15.4549 3.15305C16.1762 2.43175 16.1762 1.26228 15.4549 0.540979Z" fill="current"></path></svg>