<svg id="Layer_1" xmlns="http://www.w3.org/2000/svg" xmlns:xlink="http://www.w3.org/1999/xlink" viewBox="0 0 390.68 128.06"><defs><linearGradient id="linear-gradient" x1="114.06" y1="36.98" x2="65.07" y2="85.97" gradientUnits="userSpaceOnUse"><stop offset=".05" stop-color="#4661f4"/><stop offset="1" stop-color="#1b0e30"/></linearGradient><linearGradient id="linear-gradient-2" x1="107.78" y1="33.62" x2="73.36" y2="93.24" gradientUnits="userSpaceOnUse"><stop offset="0" stop-color="#46ddff"/><stop offset=".59" stop-color="#4661f4"/><stop offset="1" stop-color="#1b0e30"/></linearGradient><linearGradient id="linear-gradient-3" x1="84.11" y1="48.94" x2="59.04" y2="74.01" xlink:href="#linear-gradient"/><linearGradient id="linear-gradient-4" x1="83.68" y1="46.44" x2="64.48" y2="79.69" xlink:href="#linear-gradient-2"/><style>.cls-3{fill:#fff}</style></defs><path d="M97.61 43.04c12.06.02 21.4 11.6 17.52 24.25-2.33 7.6-9.59 12.62-17.54 12.62H80.08L69.55 90.44h28.04c8 0 15.24-3.24 20.49-8.49a28.926 28.926 0 0 0 8.49-20.49c0-8-3.24-15.24-8.49-20.49a28.926 28.926 0 0 0-20.49-8.49H69.55l10.53 10.53h17.53z" style="fill:url(#linear-gradient);stroke:url(#linear-gradient-2);stroke-miterlimit:10;stroke-width:.5px"/><path style="stroke-miterlimit:10;stroke-width:.5px;fill:url(#linear-gradient-3);stroke:url(#linear-gradient-4)" d="M79.53 44.36H63.62l17.12 17.11-17.12 17.12h15.91l17.12-17.12-17.12-17.11z"/><g><path class="cls-3" d="M152.66 47.04h13.04c9.02 0 14.17 5.27 14.17 14.05s-5.15 14.13-14.17 14.13h-13.04V47.04zm13 24.39c6.36 0 9.9-3.5 9.9-10.26s-3.54-10.34-9.9-10.34h-8.82v20.61h8.82zM191.15 64.47V47.04h4.19v17.19c0 5.76 3.91 7.81 8.86 7.81s8.81-1.97 8.81-7.69V47.04h4.19v17.31c0 8.37-5.47 11.55-13.04 11.55s-13-3.22-13-11.43zM230.28 47.04h15.42c5.72 0 9.1 2.46 9.1 7.04 0 3.3-1.61 5.68-5.47 6.52 4.03 1.17 6.08 3.34 6.08 6.8 0 5.51-4.03 7.81-10.43 7.81h-14.69V47.03zm14.77 12.08c3.78 0 5.59-1.41 5.59-4.27s-1.93-4.11-5.35-4.11h-10.91v8.37h10.67zm.04 12.36c4.27-.04 6.12-1.49 6.12-4.55 0-2.78-1.89-4.43-5.96-4.43h-10.87v9.02l10.71-.04zM266.83 47.04h15.42c5.72 0 9.1 2.46 9.1 7.04 0 3.3-1.61 5.68-5.47 6.52 4.03 1.17 6.08 3.34 6.08 6.8 0 5.51-4.03 7.81-10.43 7.81h-14.69V47.03zm14.77 12.08c3.78 0 5.59-1.41 5.59-4.27s-1.93-4.11-5.35-4.11h-10.91v8.37h10.67zm.04 12.36c4.27-.04 6.12-1.49 6.12-4.55 0-2.78-1.89-4.43-5.96-4.43h-10.87v9.02l10.71-.04zM301.82 71.24l19.64-20.41h-19.12l.16-3.78h24.55v3.62l-20.01 20.77h20.01v3.78h-25.24v-3.98z"/></g></svg>