<svg width="422" height="422" viewBox="0 0 422 422" fill="none" xmlns="http://www.w3.org/2000/svg" style="margin-left: 5px;"><rect width="422" height="422" rx="211" fill="url(#paint0_linear_3560_11231)"></rect><path fill-rule="evenodd" clip-rule="evenodd" d="M246.443 107.453L284.121 128.819C306.349 141.424 320.043 164.718 320.043 189.927L320.043 232.658C320.043 257.867 306.349 281.162 284.121 293.766L246.443 315.132C224.214 327.736 196.828 327.736 174.6 315.132L136.921 293.766C114.693 281.162 101 257.867 101 232.658L101 189.927C101 164.718 114.693 141.424 136.921 128.819L174.6 107.453C196.828 94.8488 224.214 94.8489 246.443 107.453ZM233.614 129.278C219.324 121.175 201.719 121.175 187.429 129.278L149.751 150.643C135.461 158.746 126.658 173.721 126.658 189.927L126.658 232.658C126.658 248.864 135.461 263.839 149.751 271.942L187.429 293.307C201.719 301.41 219.324 301.41 233.614 293.307L271.292 271.942C285.582 263.839 294.384 248.864 294.384 232.658L294.384 189.927C294.384 173.721 285.582 158.746 271.292 150.643L233.614 129.278Z" fill="black"></path><path d="M200.606 169.701C206.957 166.1 214.782 166.1 221.133 169.701L242.475 181.803C248.826 185.405 252.739 192.06 252.739 199.263L252.739 223.468C252.739 230.67 248.826 237.326 242.475 240.927L221.133 253.03C214.782 256.631 206.957 256.631 200.606 253.03L179.263 240.927C172.912 237.326 169 230.67 169 223.468L169 199.263C169 192.06 172.912 185.405 179.263 181.803L200.606 169.701Z" fill="black"></path><defs><linearGradient id="paint0_linear_3560_11231" x1="211" y1="0" x2="211" y2="422" gradientUnits="userSpaceOnUse"><stop stop-color="#FFF1CC"></stop><stop offset="1" stop-color="#FFB800"></stop></linearGradient></defs></svg>