<svg width="24" height="24" viewBox="0 0 86 86" fill="none" xmlns="http://www.w3.org/2000/svg" style="border-radius: 100%;"><rect width="86" height="86" rx="43" fill="#6100FF"></rect><g clip-path="url(#clip0_3659_11505)"><path d="M55.25 34.75C54.375 34.25 53.25 34.25 52.25 34.75L45.25 38.875L40.5 41.5L33.625 45.625C32.75 46.125 31.625 46.125 30.625 45.625L25.25 42.375C24.375 41.875 23.75 40.875 23.75 39.75V33.5C23.75 32.5 24.25 31.5 25.25 30.875L30.625 27.75C31.5 27.25 32.625 27.25 33.625 27.75L39 31C39.875 31.5 40.5 32.5 40.5 33.625V37.75L45.25 35V30.75C45.25 29.75 44.75 28.75 43.75 28.125L33.75 22.25C32.875 21.75 31.75 21.75 30.75 22.25L20.5 28.25C19.5 28.75 19 29.75 19 30.75V42.5C19 43.5 19.5 44.5 20.5 45.125L30.625 51C31.5 51.5 32.625 51.5 33.625 51L40.5 47L45.25 44.25L52.125 40.25C53 39.75 54.125 39.75 55.125 40.25L60.5 43.375C61.375 43.875 62 44.875 62 46V52.25C62 53.25 61.5 54.25 60.5 54.875L55.25 58C54.375 58.5 53.25 58.5 52.25 58L46.875 54.875C46 54.375 45.375 53.375 45.375 52.25V48.25L40.625 51V55.125C40.625 56.125 41.125 57.125 42.125 57.75L52.25 63.625C53.125 64.125 54.25 64.125 55.25 63.625L65.375 57.75C66.25 57.25 66.875 56.25 66.875 55.125V43.25C66.875 42.25 66.375 41.25 65.375 40.625L55.25 34.75Z" fill="white"></path></g><defs><clipPath id="clip0_3659_11505"><rect width="48" height="41.875" fill="white" transform="translate(19 22)"></rect></clipPath></defs></svg>