<svg width="26" height="26" viewBox="0 0 24 24" fill="#FF4E4E" xmlns="http://www.w3.org/2000/svg" class="ant-menu-item-icon"><path d="M21.0579 12.2802C21.0508 10.7788 20.4505 9.34097 19.3879 8.2802L13.9979 2.8102C13.4673 2.28015 12.7479 1.98242 11.9979 1.98242C11.2479 1.98242 10.5286 2.28015 9.99793 2.8102L4.60793 8.2302C3.54531 9.29097 2.94504 10.7288 2.93793 12.2302C2.92864 12.9863 3.06988 13.7367 3.35342 14.4376C3.63697 15.1386 4.05715 15.7762 4.58949 16.3132C5.12184 16.8502 5.75571 17.2759 6.45418 17.5655C7.15266 17.8551 7.90179 18.0029 8.65793 18.0002V18.0002C8.40664 18.8629 7.98877 19.6681 7.42793 20.3702C7.30693 20.5191 7.23133 20.6997 7.21016 20.8904C7.18899 21.0812 7.22314 21.2739 7.30854 21.4458C7.39393 21.6176 7.52696 21.7613 7.69176 21.8596C7.85655 21.9579 8.04615 22.0067 8.23793 22.0002H15.7579C15.9472 22.0008 16.1327 21.9478 16.293 21.8472C16.4533 21.7466 16.5817 21.6026 16.6634 21.4319C16.7451 21.2612 16.7766 21.0708 16.7544 20.8829C16.7322 20.6949 16.6572 20.5172 16.5379 20.3702C15.9762 19.6687 15.5583 18.8633 15.3079 18.0002C16.0619 18.0082 16.8099 17.8662 17.5085 17.5825C18.2071 17.2989 18.8423 16.8793 19.3773 16.348C19.9123 15.8167 20.3364 15.1844 20.6249 14.4878C20.9134 13.7912 21.0606 13.0442 21.0579 12.2902V12.2802ZM17.9979 14.9102C17.525 15.376 16.9377 15.709 16.2953 15.8757C15.6528 16.0425 14.9777 16.0371 14.3379 15.8602C14.2814 15.8554 14.2245 15.8554 14.1679 15.8602H13.9679C13.8931 15.8742 13.8195 15.8943 13.7479 15.9202H13.5979C13.5502 15.9514 13.5066 15.9883 13.4679 16.0302C13.4047 16.0682 13.3474 16.1154 13.2979 16.1702C13.2818 16.2089 13.2617 16.2457 13.2379 16.2802C13.194 16.3548 13.154 16.4315 13.1179 16.5102V16.5102C13.113 16.5701 13.113 16.6303 13.1179 16.6902C13.1179 16.7502 13.1179 16.8102 13.1179 16.8702C13.1964 17.9551 13.4744 19.0162 13.9379 20.0002H10.0579C10.5317 19.0622 10.8299 18.0455 10.9379 17.0002V17.0002C10.9379 16.9402 10.9379 16.8802 10.9379 16.8102C10.9428 16.7503 10.9428 16.6901 10.9379 16.6302C10.9045 16.5452 10.8609 16.4646 10.8079 16.3902C10.7917 16.3548 10.7715 16.3212 10.7479 16.2902C10.7044 16.2334 10.65 16.1858 10.5879 16.1502C10.5471 16.1107 10.5037 16.0739 10.4579 16.0402H10.3179C10.2448 16.0065 10.1674 15.9829 10.0879 15.9702V15.9702H9.89793C9.83803 15.9653 9.77783 15.9653 9.71793 15.9702C9.0597 16.1417 8.36757 16.1338 7.71341 15.9474C7.05925 15.761 6.46692 15.4029 5.99793 14.9102C5.30301 14.2109 4.91143 13.2661 4.90793 12.2802C4.9064 11.7915 5.00196 11.3073 5.18908 10.8558C5.3762 10.4044 5.65113 9.99455 5.99793 9.6502L11.3979 4.2302C11.5492 4.08298 11.7519 4.00061 11.9629 4.00061C12.174 4.00061 12.3767 4.08298 12.5279 4.2302L17.9979 9.6502C18.3447 9.99455 18.6197 10.4044 18.8068 10.8558C18.9939 11.3073 19.0895 11.7915 19.0879 12.2802C19.0812 13.2654 18.6901 14.2091 17.9979 14.9102V14.9102Z" fill="current"></path></svg>