<svg width="16" height="16" viewBox="0 0 16 16" fill="white" xmlns="http://www.w3.org/2000/svg" class="head-tail-logo"><path fill-rule="evenodd" clip-rule="evenodd" d="M11.4096 5.38708L8.55096 3.73665C8.20709 3.53812 7.78344 3.53812 7.43958 3.73665L4.58094 5.38708C4.23708 5.58561 4.02525 5.95251 4.02525 6.34957V9.65043C4.02525 10.0475 4.23708 10.4144 4.58094 10.6129L7.43958 12.2634C7.78344 12.4619 8.20709 12.4619 8.55096 12.2634L11.4096 10.6129C11.7535 10.4144 11.9653 10.0475 11.9653 9.65043V6.34957C11.9653 5.95251 11.7535 5.58561 11.4096 5.38708ZM10.3448 0.629564C8.89092 -0.209855 7.09962 -0.209855 5.6457 0.629564L2.78707 2.28C1.33315 3.11942 0.4375 4.67073 0.4375 6.34957V9.65043C0.4375 11.3293 1.33315 12.8806 2.78707 13.72L5.6457 15.3704C7.09962 16.2099 8.89092 16.2099 10.3448 15.3704L13.2035 13.72C14.6574 12.8806 15.553 11.3293 15.553 9.65043V6.34957C15.553 4.67073 14.6574 3.11942 13.2035 2.28L10.3448 0.629564Z" fill="current"></path></svg>