<svg width="20" height="20" viewBox="0 0 20 20" fill="#C9D2D9" xmlns="http://www.w3.org/2000/svg"><path fill-rule="evenodd" clip-rule="evenodd" d="M10 20C15.5228 20 20 15.5228 20 10C20 4.47715 15.5228 0 10 0C4.47715 0 0 4.47715 0 10C0 15.5228 4.47715 20 10 20ZM11.8093 5.50058C12.7145 5.65364 13.58 5.92282 14.3876 6.287C14.3946 6.28981 14.4004 6.29505 14.4039 6.30178C15.8348 8.3718 16.541 10.7078 16.2771 13.3964C16.2765 13.4021 16.2746 13.4076 16.2717 13.4125C16.2688 13.4174 16.2649 13.4217 16.2602 13.4249C15.3005 14.1241 14.2294 14.6561 13.0924 14.9983C13.0844 15.0007 13.0758 15.0006 13.0679 14.9979C13.0599 14.9953 13.053 14.9902 13.048 14.9835C12.8089 14.6558 12.5915 14.3106 12.4015 13.948C12.3989 13.943 12.3974 13.9375 12.3971 13.9319C12.3968 13.9262 12.3977 13.9206 12.3997 13.9154C12.4018 13.9101 12.4049 13.9054 12.409 13.9014C12.413 13.8975 12.4178 13.8945 12.4231 13.8926C12.7678 13.7648 13.0961 13.6112 13.4117 13.4297C13.4173 13.4263 13.422 13.4217 13.4254 13.416C13.4288 13.4104 13.4307 13.4041 13.431 13.3975C13.4313 13.391 13.43 13.3845 13.4272 13.3786C13.4244 13.3727 13.4201 13.3676 13.4148 13.3637C13.3478 13.3146 13.2818 13.2634 13.2185 13.2117C13.2127 13.2071 13.2057 13.2042 13.1983 13.2033C13.191 13.2025 13.1835 13.2038 13.1768 13.2069C11.1284 14.138 8.88371 14.138 6.81104 13.2069C6.80437 13.2039 6.79698 13.2028 6.78971 13.2038C6.78244 13.2047 6.77558 13.2076 6.76988 13.2122C6.70654 13.2634 6.64004 13.3146 6.57354 13.3637C6.56831 13.3677 6.56414 13.3728 6.5614 13.3788C6.55867 13.3847 6.55746 13.3913 6.55788 13.3978C6.5583 13.4044 6.56033 13.4107 6.5638 13.4163C6.56727 13.4218 6.57207 13.4264 6.57776 13.4297C6.89448 13.6097 7.22484 13.7647 7.56579 13.8931C7.57107 13.8949 7.57589 13.8979 7.57991 13.9018C7.58394 13.9057 7.58709 13.9104 7.58914 13.9156C7.59119 13.9208 7.5921 13.9264 7.59181 13.932C7.59151 13.9376 7.59002 13.943 7.58743 13.948C7.40107 14.3108 7.18462 14.6574 6.94035 14.984C6.9352 14.9905 6.92821 14.9953 6.92031 14.9977C6.9124 15.0002 6.90393 15.0002 6.89602 14.9978C5.76091 14.6546 4.69162 14.1229 3.73293 13.4249C3.72838 13.4215 3.72458 13.4171 3.72176 13.4121C3.71895 13.4071 3.71718 13.4016 3.71657 13.3959C3.49542 11.0704 3.94563 8.71539 5.58814 6.30072C5.59218 6.29436 5.59808 6.28939 5.60503 6.28647C6.41309 5.92176 7.27867 5.65259 8.18332 5.49953C8.19148 5.49823 8.19985 5.49946 8.2073 5.50304C8.21475 5.50662 8.22093 5.51239 8.22501 5.51958C8.34554 5.72976 8.45425 5.9465 8.55066 6.16877C9.51068 6.02534 10.4867 6.02534 11.4467 6.16877C11.5332 5.96821 11.6568 5.71434 11.7676 5.51958C11.7717 5.51248 11.7779 5.50684 11.7854 5.50343C11.7929 5.50003 11.8012 5.49903 11.8093 5.50058ZM6.75879 10.7237C6.75879 11.4156 7.2734 11.9798 7.89725 11.9798C8.53114 11.9798 9.03571 11.4161 9.03571 10.7237C9.04574 10.0359 8.53589 9.46751 7.89725 9.46751C7.26337 9.46751 6.75879 10.0312 6.75879 10.7237ZM10.968 10.7237C10.968 11.4156 11.4821 11.9798 12.1064 11.9798C12.7456 11.9798 13.2449 11.4161 13.2449 10.7237C13.2549 10.0359 12.7451 9.46751 12.1064 9.46751C11.472 9.46751 10.968 10.0312 10.968 10.7237Z" fill="current"></path></svg>