<svg width="20" height="20" viewBox="0 0 20 20" fill="#C9D2D9" xmlns="http://www.w3.org/2000/svg"><path fill-rule="evenodd" clip-rule="evenodd" d="M10 20C15.5228 20 20 15.5228 20 10C20 4.47715 15.5228 0 10 0C4.47715 0 0 4.47715 0 10C0 15.5228 4.47715 20 10 20ZM9.45793 13.4408C9.40821 13.4201 9.3549 13.4094 9.30104 13.4094C9.19228 13.4092 9.08791 13.4523 9.01089 13.5291C8.93388 13.6059 8.89052 13.7101 8.89037 13.8189C8.89021 13.9276 8.93327 14.032 9.01007 14.109C9.08687 14.186 9.19111 14.2294 9.29988 14.2295C9.35373 14.2296 9.40707 14.2191 9.45686 14.1985C9.50664 14.178 9.55189 14.1479 9.59002 14.1098C9.62816 14.0718 9.65843 14.0267 9.67911 13.9769C9.69979 13.9272 9.71047 13.8739 9.71055 13.82C9.71063 13.7662 9.7001 13.7128 9.67956 13.6631C9.65902 13.6133 9.62888 13.568 9.59085 13.5299C9.55282 13.4918 9.50766 13.4615 9.45793 13.4408ZM15.5749 10.8422C15.6246 10.8629 15.678 10.8735 15.7318 10.8736C15.8406 10.8736 15.9449 10.8305 16.0219 10.7537C16.0988 10.6768 16.1421 10.5725 16.1422 10.4638C16.1423 10.355 16.0991 10.2507 16.0223 10.1737C15.9454 10.0967 15.8412 10.0535 15.7324 10.0534C15.6785 10.0534 15.6252 10.0639 15.5754 10.0845C15.5257 10.1051 15.4804 10.1352 15.4423 10.1733C15.4042 10.2114 15.374 10.2565 15.3533 10.3063C15.3327 10.356 15.3221 10.4093 15.322 10.4632C15.322 10.517 15.3325 10.5704 15.3531 10.6201C15.3737 10.6699 15.4039 10.7151 15.4419 10.7533C15.48 10.7914 15.5252 10.8216 15.5749 10.8422ZM14.8354 9.56766C15.0732 9.3299 15.3956 9.19619 15.7318 9.19588V9.19529C16.0681 9.1956 16.3905 9.32931 16.6282 9.56708C16.866 9.80484 16.9997 10.1272 17 10.4635C16.9997 10.7997 16.866 11.1221 16.6282 11.3599C16.3905 11.5976 16.0681 11.7314 15.7318 11.7317C15.4495 11.7317 15.1736 11.6366 14.9519 11.4627L10.5686 13.8387C10.563 14.1714 10.427 14.4885 10.19 14.7219C9.95293 14.9554 9.63374 15.0865 9.30104 15.0871C8.99642 15.0867 8.70208 14.9768 8.4718 14.7774C8.24153 14.5779 8.0907 14.3023 8.04686 14.0009L4.06729 11.9487C3.41337 11.6062 2.95661 10.6712 3.00328 9.77455C3.03361 9.20929 3.26636 8.7537 3.64145 8.52503C3.85146 8.39728 7.53818 6.57142 10.2927 5.20931L10.4397 5.13639C10.5156 5.08973 10.9408 4.85639 11.4693 5.13289C12.0755 5.45069 13.4485 6.09358 14.6695 6.66528L14.7045 6.68167C14.7552 6.7054 14.8059 6.72918 14.8567 6.75294C15.382 6.99905 15.9033 7.24327 16.2533 7.41085C16.2539 7.41085 16.4604 7.4896 16.4604 7.6891C16.4604 7.83319 16.3449 7.92827 16.2457 7.96561L9.49996 11.4738C9.13829 11.6453 9.02046 11.6057 8.8087 11.5071C8.68674 11.4508 6.11176 10.0951 4.83221 9.42148C4.66742 9.33472 4.52411 9.25928 4.4103 9.19938L4.3858 9.18596C4.2528 9.11654 4.12796 9.11188 4.02413 9.17021C3.86021 9.26355 3.75287 9.50505 3.73654 9.81597C3.70504 10.4121 4.00254 11.0667 4.40038 11.2755L8.16353 13.26C8.37703 12.8278 8.81745 12.5507 9.30104 12.5507C9.50583 12.5506 9.70756 12.6003 9.88885 12.6955C10.0702 12.7907 10.2256 12.9286 10.3417 13.0973L14.5307 10.8672C14.4864 10.7353 14.4636 10.6 14.4636 10.4641C14.4639 10.1278 14.5976 9.80543 14.8354 9.56766Z" fill="current"></path></svg>