<svg width="24" height="24" viewBox="0 0 24 24" fill="#C9D2D9" xmlns="http://www.w3.org/2000/svg" class="ant-menu-item-icon"><path d="M21.708 7.28994C21.615 7.19621 21.5044 7.12182 21.3826 7.07105C21.2607 7.02028 21.13 6.99414 20.998 6.99414C20.866 6.99414 20.7353 7.02028 20.6134 7.07105C20.4916 7.12182 20.3809 7.19621 20.288 7.28994L13.998 13.5899L9.70799 9.28994C9.61502 9.19621 9.50442 9.12182 9.38256 9.07105C9.2607 9.02028 9.13 8.99414 8.99799 8.99414C8.86597 8.99414 8.73527 9.02028 8.61341 9.07105C8.49155 9.12182 8.38095 9.19621 8.28799 9.28994L2.28799 15.2899C2.19426 15.3829 2.11986 15.4935 2.06909 15.6154C2.01833 15.7372 1.99219 15.8679 1.99219 15.9999C1.99219 16.132 2.01833 16.2627 2.06909 16.3845C2.11986 16.5064 2.19426 16.617 2.28799 16.7099C2.38095 16.8037 2.49155 16.8781 2.61341 16.9288C2.73527 16.9796 2.86597 17.0057 2.99799 17.0057C3.13 17.0057 3.2607 16.9796 3.38256 16.9288C3.50442 16.8781 3.61502 16.8037 3.70799 16.7099L8.99799 11.4099L13.288 15.7099C13.3809 15.8037 13.4915 15.8781 13.6134 15.9288C13.7353 15.9796 13.866 16.0057 13.998 16.0057C14.13 16.0057 14.2607 15.9796 14.3826 15.9288C14.5044 15.8781 14.615 15.8037 14.708 15.7099L21.708 8.70994C21.8017 8.61698 21.8761 8.50638 21.9269 8.38452C21.9776 8.26266 22.0038 8.13195 22.0038 7.99994C22.0038 7.86793 21.9776 7.73722 21.9269 7.61536C21.8761 7.4935 21.8017 7.3829 21.708 7.28994Z" fill="current"></path></svg>